<svg xmlns="http://www.w3.org/2000/svg" xmlns:xlink="http://www.w3.org/1999/xlink" style="height: 0; position: absolute">
  <symbol id="codepen" viewBox="0 0 16 16"><path d="M15.988 5.443c-.004-.02-.007-.04-.012-.058l-.01-.033c-.006-.017-.012-.034-.02-.05-.003-.012-.01-.023-.014-.034l-.023-.045-.02-.032-.03-.04-.024-.03c-.01-.013-.022-.026-.034-.038l-.027-.027-.04-.032-.03-.024-.012-.01L8.38.117c-.23-.155-.53-.155-.76 0L.305 4.99.296 5c-.012.007-.022.015-.032.023-.014.01-.027.02-.04.032l-.027.027-.034.037-.024.03-.03.04c-.006.012-.013.022-.02.033l-.023.045-.015.034c-.007.016-.012.033-.018.05l-.01.032c-.005.02-.01.038-.012.058l-.006.03C.002 5.5 0 5.53 0 5.56v4.875c0 .03.002.06.006.09l.007.03c.003.02.006.04.013.058l.01.033c.006.018.01.035.018.05l.015.033c.006.016.014.03.023.047l.02.03c.008.016.018.03.03.042.007.01.014.02.023.03.01.012.02.025.034.036.01.01.018.02.028.026l.04.033.03.023.01.01 7.31 4.876c.116.078.248.117.382.116.134 0 .266-.04.38-.116l7.314-4.875.01-.01c.012-.007.022-.015.032-.023.014-.01.027-.02.04-.032l.027-.027.034-.037.024-.03.03-.04.02-.032.023-.046.015-.033.018-.052.01-.033c.005-.02.01-.038.013-.058 0-.01.003-.02.004-.03.004-.03.006-.06.006-.09V5.564c0-.03-.002-.06-.006-.09l-.007-.03zM8 9.626L5.568 8 8 6.374 10.432 8 8 9.626zM7.312 5.18l-2.98 1.993-2.406-1.61 5.386-3.59v3.206zM3.095 8l-1.72 1.15v-2.3L3.095 8zm1.237.828l2.98 1.993v3.208l-5.386-3.59 2.406-1.61zm4.355 1.993l2.98-1.993 2.407 1.61-5.387 3.59v-3.206zM12.905 8l1.72-1.15v2.3L12.905 8zm-1.237-.827L8.688 5.18V1.97l5.386 3.59-2.406 1.61z" fill-rule="nonzero"/></symbol>
  <symbol id="dribbble" viewBox="0 0 16 16"><path d="M8 16c-4.41 0-8-3.59-8-8s3.59-8 8-8 8 3.59 8 8-3.59 8-8 8zm6.747-6.905c-.234-.074-2.115-.635-4.257-.292.894 2.456 1.258 4.456 1.328 4.872 1.533-1.037 2.624-2.68 2.93-4.58zM10.67 14.3c-.102-.6-.5-2.688-1.46-5.18l-.044.014C5.312 10.477 3.93 13.15 3.806 13.4c1.158.905 2.614 1.444 4.194 1.444.947 0 1.85-.194 2.67-.543zm-7.747-1.72c.155-.266 2.03-3.37 5.555-4.51.09-.03.18-.056.27-.08-.173-.39-.36-.778-.555-1.16C4.78 7.85 1.47 7.807 1.17 7.8l-.003.208c0 1.755.665 3.358 1.756 4.57zM1.31 6.61c.307.005 3.122.017 6.318-.832-1.132-2.012-2.353-3.705-2.533-3.952-1.912.902-3.34 2.664-3.784 4.785zM6.4 1.368c.188.253 1.43 1.943 2.548 4 2.43-.91 3.46-2.293 3.582-2.468C11.323 1.827 9.736 1.176 8 1.176c-.55 0-1.087.066-1.6.19zm6.89 2.322c-.145.194-1.29 1.662-3.816 2.694.16.325.31.656.453.99.05.117.1.235.147.352 2.274-.286 4.533.172 4.758.22-.015-1.613-.59-3.094-1.543-4.257z"/></symbol>
  <symbol id="designernews" viewBox="0 0 16 16"><path d="M7.514 7.988c0-2.555-1.57-4.287-4.56-4.287H0v8.6h3.016c2.903 0 4.498-1.75 4.498-4.31zM5.37 8c0 1.844-.946 2.642-2.467 2.642H2.13V5.358h.773C4.36 5.358 5.37 6.193 5.37 8zM16 12.3V3.7h-1.98v4.81L10.853 3.7h-2.07v8.6h1.982V7.152l3.39 5.146H16z"/></symbol>
  <symbol id="facebook" viewBox="0 0 16 16"><path d="M15.117 0H.883C.395 0 0 .395 0 .883v14.234c0 .488.395.883.883.883h7.663V9.804H6.46V7.39h2.086V5.607c0-2.066 1.262-3.19 3.106-3.19.883 0 1.642.064 1.863.094v2.16h-1.28c-1 0-1.195.476-1.195 1.176v1.54h2.39l-.31 2.416h-2.08V16h4.077c.488 0 .883-.395.883-.883V.883C16 .395 15.605 0 15.117 0" fill-rule="nonzero"/></symbol>
  <symbol id="flickr" viewBox="0 0 16 16"><path d="M0 8c0 2.05 1.662 3.71 3.71 3.71 2.05 0 3.713-1.66 3.713-3.71S5.76 4.29 3.71 4.29C1.663 4.29 0 5.95 0 8zm8.577 0c0 2.05 1.662 3.71 3.712 3.71C14.337 11.71 16 10.05 16 8s-1.662-3.71-3.71-3.71c-2.05 0-3.713 1.66-3.713 3.71z"/></symbol>
  <symbol id="github" viewBox="0 0 16 16"><path d="M8 0C3.58 0 0 3.582 0 8c0 3.535 2.292 6.533 5.47 7.59.4.075.547-.172.547-.385 0-.19-.007-.693-.01-1.36-2.226.483-2.695-1.073-2.695-1.073-.364-.924-.89-1.17-.89-1.17-.725-.496.056-.486.056-.486.803.056 1.225.824 1.225.824.714 1.223 1.873.87 2.33.665.072-.517.278-.87.507-1.07-1.777-.2-3.644-.888-3.644-3.953 0-.873.31-1.587.823-2.147-.083-.202-.358-1.015.077-2.117 0 0 .672-.215 2.2.82.638-.178 1.323-.266 2.003-.27.68.004 1.364.092 2.003.27 1.527-1.035 2.198-.82 2.198-.82.437 1.102.163 1.915.08 2.117.513.56.823 1.274.823 2.147 0 3.073-1.87 3.75-3.653 3.947.287.246.543.735.543 1.48 0 1.07-.01 1.933-.01 2.195 0 .215.144.463.55.385C13.71 14.53 16 11.534 16 8c0-4.418-3.582-8-8-8"/></symbol>
  <symbol id="hackernews" viewBox="0 0 16 16"><path d="M0 0v16h16V0H0zm8.92 8.96v3H7.25v-3l-2.75-5h1.96l1.66 3.48L9.7 3.96h1.88l-2.66 5z"/></symbol>
  <symbol id="instagram" viewBox="0 0 16 16"><path d="M8 0C5.827 0 5.555.01 4.702.048 3.85.088 3.27.222 2.76.42c-.526.204-.973.478-1.417.923-.445.444-.72.89-.923 1.417-.198.51-.333 1.09-.372 1.942C.008 5.555 0 5.827 0 8s.01 2.445.048 3.298c.04.852.174 1.433.372 1.942.204.526.478.973.923 1.417.444.445.89.72 1.417.923.51.198 1.09.333 1.942.372.853.04 1.125.048 3.298.048s2.445-.01 3.298-.048c.852-.04 1.433-.174 1.942-.372.526-.204.973-.478 1.417-.923.445-.444.72-.89.923-1.417.198-.51.333-1.09.372-1.942.04-.853.048-1.125.048-3.298s-.01-2.445-.048-3.298c-.04-.852-.174-1.433-.372-1.942-.204-.526-.478-.973-.923-1.417-.444-.445-.89-.72-1.417-.923-.51-.198-1.09-.333-1.942-.372C10.445.008 10.173 0 8 0zm0 1.44c2.136 0 2.39.01 3.233.048.78.036 1.203.166 1.485.276.374.145.64.318.92.598.28.28.453.546.598.92.11.282.24.705.276 1.485.038.844.047 1.097.047 3.233s-.01 2.39-.048 3.233c-.036.78-.166 1.203-.276 1.485-.145.374-.318.64-.598.92-.28.28-.546.453-.92.598-.282.11-.705.24-1.485.276-.844.038-1.097.047-3.233.047s-2.39-.01-3.233-.048c-.78-.036-1.203-.166-1.485-.276-.374-.145-.64-.318-.92-.598-.28-.28-.453-.546-.598-.92-.11-.282-.24-.705-.276-1.485C1.45 10.39 1.44 10.136 1.44 8s.01-2.39.048-3.233c.036-.78.166-1.203.276-1.485.145-.374.318-.64.598-.92.28-.28.546-.453.92-.598.282-.11.705-.24 1.485-.276C5.61 1.45 5.864 1.44 8 1.44zm0 2.452c-2.27 0-4.108 1.84-4.108 4.108 0 2.27 1.84 4.108 4.108 4.108 2.27 0 4.108-1.84 4.108-4.108 0-2.27-1.84-4.108-4.108-4.108zm0 6.775c-1.473 0-2.667-1.194-2.667-2.667 0-1.473 1.194-2.667 2.667-2.667 1.473 0 2.667 1.194 2.667 2.667 0 1.473-1.194 2.667-2.667 2.667zm5.23-6.937c0 .53-.43.96-.96.96s-.96-.43-.96-.96.43-.96.96-.96.96.43.96.96z"/></symbol>
  <symbol id="linkedin" viewBox="0 0 16 16"><path d="M13.632 13.635h-2.37V9.922c0-.886-.018-2.025-1.234-2.025-1.235 0-1.424.964-1.424 1.96v3.778h-2.37V6H8.51V7.04h.03c.318-.6 1.092-1.233 2.247-1.233 2.4 0 2.845 1.58 2.845 3.637v4.188zM3.558 4.955c-.762 0-1.376-.617-1.376-1.377 0-.758.614-1.375 1.376-1.375.76 0 1.376.617 1.376 1.375 0 .76-.617 1.377-1.376 1.377zm1.188 8.68H2.37V6h2.376v7.635zM14.816 0H1.18C.528 0 0 .516 0 1.153v13.694C0 15.484.528 16 1.18 16h13.635c.652 0 1.185-.516 1.185-1.153V1.153C16 .516 15.467 0 14.815 0z" fill-rule="nonzero"/></symbol>
  <symbol id="medium" viewBox="0 0 16 16"><path d="M11.824 12.628l-.276.45.798.398 2.744 1.372c.15.076.294.11.418.11.278 0 .467-.177.467-.492V5.883l-4.15 6.745zm4.096-8.67c-.004-.003 0-.01-.003-.012l-4.825-2.412c-.06-.03-.123-.038-.187-.044-.016 0-.03-.01-.047-.01-.184 0-.368.092-.467.254l-.24.39-.5.814-1.89 3.08 1.89 3.076.5.813.5.812.59.95 4.71-7.64c.02-.03.01-.06-.02-.08zm-6.27 7.045L7.17 6.97l-.295-.477-.294-.477-.25-.416v4.867l3.32 1.663.5.25.5.25-.5-.813-.5-.813zM.737 1.68L.59 1.608c-.085-.042-.166-.062-.24-.062-.206 0-.35.16-.35.427v10.162c0 .272.2.594.442.716l4.145 2.08c.107.06.208.08.3.08.257 0 .438-.2.438-.53V4.01c0-.02-.012-.04-.03-.047L.738 1.68z"/></symbol>
  <symbol id="pinterest" viewBox="0 0 16 16"><path d="M8 0C3.582 0 0 3.582 0 8c0 3.39 2.108 6.285 5.084 7.45-.07-.633-.133-1.604.028-2.295.146-.625.938-3.977.938-3.977s-.24-.48-.24-1.188c0-1.11.646-1.943 1.448-1.943.683 0 1.012.513 1.012 1.127 0 .687-.436 1.713-.662 2.664-.19.797.4 1.445 1.185 1.445 1.42 0 2.514-1.498 2.514-3.662 0-1.915-1.376-3.254-3.342-3.254-2.276 0-3.61 1.707-3.61 3.472 0 .687.263 1.424.593 1.825.066.08.075.15.057.23-.06.252-.196.796-.223.907-.035.146-.115.178-.268.107-.998-.465-1.624-1.926-1.624-3.1 0-2.524 1.834-4.84 5.287-4.84 2.774 0 4.932 1.977 4.932 4.62 0 2.757-1.74 4.977-4.153 4.977-.81 0-1.572-.422-1.833-.92l-.5 1.902c-.18.695-.667 1.566-.994 2.097.75.232 1.545.357 2.37.357 4.417 0 8-3.582 8-8s-3.583-8-8-8z" fill-rule="nonzero"/></symbol>
  <symbol id="rss" viewBox="0 0 16 16"><path d="M12.8 16C12.8 8.978 7.022 3.2 0 3.2V0c8.777 0 16 7.223 16 16h-3.2zM2.194 11.61c1.21 0 2.195.985 2.195 2.196 0 1.21-.985 2.194-2.196 2.194C.984 16 0 15.017 0 13.806c0-1.21.983-2.195 2.194-2.195zM10.606 16h-3.11c0-4.113-3.383-7.497-7.496-7.497v-3.11c5.818 0 10.606 4.79 10.606 10.607z"/></symbol>
  <symbol id="reddit" viewBox="0 0 16 16"><path d="M1.473 9.368c-.04.185-.06.374-.06.566 0 2.3 2.94 4.173 6.554 4.173 3.613 0 6.553-1.872 6.553-4.173 0-.183-.02-.364-.055-.54l-.01-.022c-.013-.036-.02-.073-.02-.11-.2-.784-.745-1.497-1.533-2.072-.03-.01-.058-.026-.084-.047-.017-.013-.03-.028-.044-.043-1.198-.824-2.91-1.34-4.807-1.34-1.88 0-3.576.506-4.772 1.315-.01.012-.02.023-.033.033-.026.022-.056.04-.087.05-.805.576-1.364 1.293-1.572 2.086 0 .038-.01.077-.025.114l-.005.01zM8 13.003c-1.198 0-2.042-.26-2.58-.8-.116-.116-.116-.305 0-.422.117-.11.307-.11.424 0 .42.42 1.125.63 2.155.63 1.03 0 1.73-.2 2.15-.62.11-.11.3-.11.42 0 .11.12.11.31 0 .43-.54.54-1.38.8-2.58.8zM5.592 7.945c-.61 0-1.12.51-1.12 1.12 0 .608.51 1.102 1.12 1.102.61 0 1.103-.494 1.103-1.102 0-.61-.494-1.12-1.103-1.12zm4.83 0c-.61 0-1.12.51-1.12 1.12 0 .608.51 1.102 1.12 1.102.61 0 1.103-.494 1.103-1.102 0-.61-.494-1.12-1.103-1.12zM13.46 6.88c.693.556 1.202 1.216 1.462 1.94.3-.225.48-.578.48-.968 0-.67-.545-1.214-1.214-1.214-.267 0-.52.087-.728.243zM1.812 6.64c-.67 0-1.214.545-1.214 1.214 0 .363.16.7.43.927.268-.72.782-1.37 1.478-1.92-.202-.14-.443-.22-.694-.22zm6.155 8.067c-3.944 0-7.152-2.14-7.152-4.77 0-.183.016-.363.046-.54-.53-.33-.86-.91-.86-1.545 0-1 .82-1.812 1.82-1.812.45 0 .87.164 1.2.455 1.24-.796 2.91-1.297 4.75-1.33l1.21-3.69.27.063s.01 0 .01.002l2.82.663c.23-.533.76-.908 1.38-.908.82 0 1.49.67 1.49 1.492 0 .823-.67 1.492-1.49 1.492s-1.49-.67-1.49-1.49L9.4 2.18l-.98 2.99c1.77.07 3.37.57 4.57 1.35.33-.31.764-.48 1.225-.48 1 0 1.814.81 1.814 1.81 0 .66-.36 1.26-.92 1.58.02.17.04.33.04.5-.01 2.63-3.21 4.77-7.16 4.77zM13.43 1.893c-.494 0-.895.4-.895.894 0 .493.4.894.894.894.49 0 .89-.4.89-.89s-.4-.89-.9-.89z"/></symbol>
  <symbol id="skype" viewBox="0 0 16 16"><path d="M8.035 12.6c-2.685 0-3.885-1.322-3.885-2.313 0-.51.374-.865.89-.865 1.15 0 .85 1.653 2.995 1.653 1.096 0 1.703-.597 1.703-1.208 0-.368-.18-.775-.904-.954l-2.387-.597C4.524 7.833 4.175 6.79 4.175 5.812c0-2.034 1.91-2.798 3.704-2.798 1.65 0 3.6.916 3.6 2.136 0 .523-.452.827-.97.827-.98 0-.798-1.36-2.773-1.36-.98 0-1.523.444-1.523 1.08 0 .636.774.84 1.446.993l1.767.392c1.936.433 2.427 1.566 2.427 2.633 0 1.652-1.266 2.886-3.82 2.886m7.4-3.264l-.014.084-.028-.16c.015.024.028.05.042.076.082-.45.125-.912.125-1.373 0-1.023-.2-2.014-.595-2.948-.38-.902-.925-1.712-1.62-2.407-.692-.696-1.5-1.242-2.4-1.623C10.015.59 9.025.39 8.005.39c-.48 0-.963.045-1.43.135H6.57l.08.04-.16-.023.08-.016C5.927.183 5.205 0 4.472 0 3.278 0 2.155.466 1.31 1.313.465 2.16 0 3.286 0 4.483c0 .763.195 1.512.563 2.175l.013-.083.028.16c-.015-.026-.027-.052-.04-.077-.076.43-.115.867-.115 1.305 0 1.022.2 2.014.593 2.948.38.903.925 1.713 1.62 2.408.693.695 1.5 1.242 2.4 1.623.932.397 1.92.597 2.94.597.445 0 .89-.04 1.325-.118l-.077-.043.162.028-.084.014c.67.378 1.426.58 2.2.58 1.194 0 2.317-.466 3.162-1.313.845-.846 1.31-1.972 1.31-3.17 0-.765-.197-1.517-.566-2.18" fill-rule="nonzero"/></symbol>
  <symbol id="tumblr" viewBox="0 0 16 16"><path d="M9.708 16c-3.396 0-4.687-2.504-4.687-4.274V6.498H3.403V4.432C5.83 3.557 6.412 1.368 6.55.12c.01-.086.077-.12.115-.12H9.01v4.076h3.2v2.422H8.997v4.98c.01.667.25 1.58 1.472 1.58h.067c.424-.012.994-.136 1.29-.278l.77 2.283c-.288.424-1.594.916-2.77.936h-.12z" fill-rule="nonzero"/></symbol>
  <symbol id="twitch" viewBox="0 0 16 16"><g fill-rule="nonzero"><path d="M1.393 0L.35 2.783v11.13h3.824V16h2.088l2.085-2.088h3.13L15.65 9.74V0H1.394zm1.39 1.39H14.26v7.653l-2.435 2.435H8l-2.085 2.085v-2.085H2.783V1.39z"/><path d="M6.61 8.348H8V4.175H6.61v4.173zm3.824 0h1.39V4.175h-1.39v4.173z"/></g></symbol>
  <symbol id="twitter" viewBox="0 0 16 16"><path d="M16 3.038c-.59.26-1.22.437-1.885.517.677-.407 1.198-1.05 1.443-1.816-.634.375-1.337.648-2.085.795-.598-.638-1.45-1.036-2.396-1.036-1.812 0-3.282 1.468-3.282 3.28 0 .258.03.51.085.75C5.152 5.39 2.733 4.084 1.114 2.1.83 2.583.67 3.147.67 3.75c0 1.14.58 2.143 1.46 2.732-.538-.017-1.045-.165-1.487-.41v.04c0 1.59 1.13 2.918 2.633 3.22-.276.074-.566.114-.865.114-.21 0-.416-.02-.617-.058.418 1.304 1.63 2.253 3.067 2.28-1.124.88-2.54 1.404-4.077 1.404-.265 0-.526-.015-.783-.045 1.453.93 3.178 1.474 5.032 1.474 6.038 0 9.34-5 9.34-9.338 0-.143-.004-.284-.01-.425.64-.463 1.198-1.04 1.638-1.7z" fill-rule="nonzero"/></symbol>
  <symbol id="vimeo" viewBox="0 0 16 16"><path d="M15.992 4.275c-.07 1.56-1.16 3.697-3.263 6.41-2.176 2.832-4.017 4.248-5.522 4.248-.933 0-1.722-.862-2.367-2.588L3.55 7.6c-.48-1.724-.993-2.587-1.542-2.587-.12 0-.538.252-1.255.755L0 4.796C.79 4.1 1.568 3.406 2.335 2.71c1.053-.912 1.844-1.39 2.37-1.44 1.246-.12 2.012.733 2.3 2.56.31 1.97.526 3.194.647 3.673.36 1.634.754 2.45 1.185 2.45.335 0 .838-.53 1.51-1.59.67-1.06 1.028-1.866 1.076-2.42.096-.915-.263-1.374-1.077-1.374-.383 0-.778.087-1.185.262.788-2.58 2.29-3.834 4.508-3.762 1.644.048 2.42 1.116 2.324 3.205z" fill-rule="nonzero"/></symbol>
  <symbol id="youtube" viewBox="0 0 16 16"><path d="M0 7.345c0-1.294.16-2.59.16-2.59s.156-1.1.636-1.587c.608-.637 1.408-.617 1.764-.684C3.84 2.36 8 2.324 8 2.324s3.362.004 5.6.166c.314.038.996.04 1.604.678.48.486.636 1.588.636 1.588S16 6.05 16 7.346v1.258c0 1.296-.16 2.59-.16 2.59s-.156 1.102-.636 1.588c-.608.638-1.29.64-1.604.678-2.238.162-5.6.166-5.6.166s-4.16-.037-5.44-.16c-.356-.067-1.156-.047-1.764-.684-.48-.487-.636-1.587-.636-1.587S0 9.9 0 8.605v-1.26zm6.348 2.73V5.58l4.323 2.255-4.32 2.24h-.002z"/></symbol>
  <symbol id="link" viewBox="0 0 16 16"><path d="M5.86 12.7l-.81.8c-.7.7-1.84.7-2.54 0a1.75 1.75 0 0 1 0-2.5l2.98-2.96c.61-.61 1.77-1.52 2.62-.68a1 1 0 1 0 1.4-1.4c-1.44-1.43-3.57-1.17-5.42.67L1.1 9.6a3.72 3.72 0 0 0 0 5.32 3.78 3.78 0 0 0 5.34 0l.8-.8a1 1 0 1 0-1.39-1.42zm9.03-11.5c-1.55-1.53-3.7-1.6-5.14-.19l-1 1a1 1 0 1 0 1.39 1.41l1-1c.75-.74 1.72-.43 2.35.2a1.75 1.75 0 0 1 0 2.5l-3.17 3.15c-1.46 1.45-2.14.77-2.43.48a1 1 0 0 0-1.4 1.4c.67.67 1.43 1 2.23 1 .98 0 2.01-.5 3-1.47l3.17-3.15a3.72 3.72 0 0 0 0-5.32z"/></symbol>
  <symbol id="email" viewBox="0 0 16 11"><path fill-rule="evenodd" d="M1.33 0h13.34L8 5 1.33 0zM16 0v11H0V0l8 6 8-6z"/></symbol>
  <symbol id="nav" viewBox="0 0 16 11"><path d="M0 12h16v-2H0v2zm0-5h16V5H0v2zm0-7v2h16V0H0z"/></symbol>
  <symbol id="orcid" viewBox="0 0 512 512"><path d="m 336.6206,194.53756 c -7.12991,-3.32734 -13.8671,-5.55949 -20.25334,-6.61343 -6.36534,-1.09517 -16.57451,-1.61223 -30.71059,-1.61223 h -36.70409 v 152.74712 h 37.63425 c 14.6735,0 26.08126,-1.01267 34.22385,-3.01709 8.14259,-2.00442 14.92159,-4.52592 20.35674,-7.62608 5.43519,-3.07925 10.416,-6.8615 14.94192,-11.38742 14.4876,-14.71475 21.74129,-33.27334 21.74129,-55.7176 0,-22.05151 -7.44016,-40.05177 -22.34085,-53.98159 -5.49732,-5.16674 -11.82143,-9.44459 -18.88918,-12.79281 z M 255.99999,8.0000031 C 119.02153,8.0000031 8.0000034,119.04185 8.0000034,255.99998 8.0000034,392.95812 119.02153,504 255.99999,504 392.97849,504 504,392.95812 504,255.99998 504,119.04185 392.97849,8.0000031 255.99999,8.0000031 Z M 173.66372,365.51268 H 144.27546 V 160.1481 h 29.38826 z M 158.94954,138.69619 c -11.13935,0 -20.21208,-9.01056 -20.21208,-20.21208 0,-11.11841 9.05183,-20.191181 20.21208,-20.191181 11.18058,0 20.23244,9.051831 20.23244,20.191181 -0.0219,11.22184 -9.05186,20.21208 -20.23244,20.21208 z m 241.3866,163.59715 c -5.29051,12.54475 -12.83407,23.58066 -22.65053,33.08742 -9.98203,9.83734 -21.59659,17.19443 -34.84378,22.19616 -7.74983,3.01709 -14.83852,5.06335 -21.30725,6.11726 -6.4891,1.01267 -18.82759,1.50883 -37.07593,1.50883 H 219.5033 V 160.1481 h 69.23318 c 27.96195,0 50.03378,4.1541 66.31951,12.54476 16.26485,8.36977 29.18144,20.72859 38.79164,36.97254 9.61013,16.26483 14.4254,34.01757 14.4254,53.19607 0.0227,13.76426 -2.66619,26.90802 -7.93576,39.43187 z" style="stroke-width:0.07717"/></symbol>
  <symbol id="researchgate" viewBox="0 0 512 512"><path d="M 48 32 C 21.5 32 0 53.5 0 80 L 0 432 C 0 458.5 21.5 480 48 480 L 400 480 C 426.5 480 448 458.5 448 432 L 448 80 C 448 53.5 426.5 32 400 32 L 48 32 z M 325.20117 96 C 330.82804 96 335.93243 96.651372 340.45898 97.980469 C 344.93467 99.29777 348.94834 101.11477 352.49023 103.44141 C 355.98128 105.74336 359.00097 108.45416 361.49414 111.52344 C 364.05137 114.60451 366.10872 117.8918 367.7207 121.42188 C 368.34658 122.54654 368.1698 123.44247 367.17188 124.06836 L 353.27148 129.7832 C 352.09419 130.41051 351.26481 130.09098 350.61133 128.84961 C 347.4923 123.0695 344.83123 119.2734 340.45898 116.51172 C 336.03447 113.76185 331.94086 112.45703 325.20117 112.45703 C 317.87355 112.45703 314.59971 113.9142 310.00977 117.20117 C 305.45673 120.42368 302.11969 124.47694 300.15039 130.65234 C 299.75509 131.76552 299.39606 133.14769 298.97461 134.77148 C 298.62908 136.4214 298.34785 138.44168 298.16992 140.80664 C 297.99038 143.17268 297.82317 146.1016 297.66992 149.55469 C 297.56787 153.0078 297.51758 157.20137 297.51758 162.06055 C 297.51758 166.94478 297.56786 171.13868 297.66992 174.5918 C 297.82327 178.03162 297.99053 180.96013 298.16992 183.32617 C 298.34783 185.71726 298.62908 187.72549 298.97461 189.38867 C 299.39641 190.98738 299.75509 192.3661 300.15039 193.49219 C 302.11969 199.64289 304.93311 203.00606 309.07617 205.70508 C 313.16841 208.4417 317.87355 210.41211 325.20117 210.41211 C 331.71062 210.41211 337.66996 208.55732 341.55664 205.73047 C 345.40647 202.90468 348.60259 199.17139 350.03516 194.06836 C 350.6625 191.91967 351.46763 189.24603 352.01758 185.97266 C 352.51636 182.69897 352.51758 179.23534 352.51758 174.45312 C 352.51758 173.69762 352.09388 173.3125 351.39062 173.3125 L 329.12695 173.3125 C 327.87376 173.3125 327.25977 172.7001 327.25977 171.44727 L 327.25977 158.68555 C 327.25977 157.41946 327.87376 156.80469 329.12695 156.80469 L 369.98438 156.80469 C 371.26371 156.80469 371.86523 157.41911 371.86523 158.68555 L 371.86523 169.5918 C 371.86523 175.37192 371.86484 180.73178 371.26367 185.69336 C 370.68758 190.65496 369.90853 194.94977 368.92383 198.08203 C 365.80339 207.89137 360.85476 214.8745 353.27148 220.07812 C 345.66207 225.32118 335.85368 228.14648 325.20117 228.14648 C 314.25539 228.14648 305.03638 225.62955 297.51758 220.62891 C 289.9855 215.56528 284.59997 208.13333 281.31445 198.19727 C 280.68713 196.3182 280.20261 194.3877 279.83203 192.36719 C 279.4482 190.35994 279.10141 188.019 278.79492 185.32031 C 278.47552 182.5966 278.27128 179.40138 278.14453 175.62891 C 278.01631 171.88256 277.96484 167.30393 277.96484 162.06055 C 277.96484 156.7914 278.01659 152.27876 278.14453 148.51953 C 278.27168 144.74705 278.47552 141.5101 278.79492 138.8125 C 279.10141 136.12674 279.4482 133.77484 279.83203 131.76758 C 280.20261 129.74708 280.68909 127.82829 281.31641 125.94922 C 284.60193 116.01316 289.9855 108.54511 297.51758 103.53125 C 305.03642 98.518462 314.25539 96 325.20117 96 z M 173.52734 173.8125 C 217.09601 173.8125 250.33008 193.67089 250.33008 236.45898 C 250.33008 265.48697 227.41412 294.54191 196.46875 301.7793 C 215.20225 335.0277 237.7209 364.44058 254.54883 382.75195 C 264.4473 393.45532 278.19453 403.01953 291.94141 403.01953 L 291.94141 412.93164 C 287.74856 414.86159 280.88088 416 274.39648 416 C 252.23637 416 234.67781 407.22664 223.19531 393.45508 C 210.61105 378.95271 188.44983 347.61039 165.15039 305.98633 C 152.89914 305.98633 144.88164 305.98606 135.71289 305.21875 L 135.71289 369.00391 C 135.71289 392.7001 141.08505 397.67521 151.39062 399.17188 L 171.26367 401.88086 L 171.26367 412.93164 C 161.71108 412.56105 139.54998 411.80469 122.36328 411.80469 C 104.39603 411.80469 86.441431 412.56105 76.134766 412.93164 L 76.134766 401.88086 L 90.636719 399.17188 C 100.61111 397.27953 106.28906 392.7001 106.28906 369.00391 L 106.28906 218.50586 C 106.28906 194.79824 100.61076 190.24462 90.636719 188.32617 L 76.134766 185.66602 L 76.134766 174.58008 C 85.661226 174.95066 100.95604 174.94922 116.26367 174.94922 C 133.04039 174.94922 151.00846 173.8125 173.52734 173.8125 z M 166.66016 190.99805 C 156.34026 190.99805 144.52429 190.9983 135.71289 191.76562 L 135.71289 287.61133 C 144.52429 288.44166 150.22826 288.78711 163.2207 288.78711 C 197.2364 288.78711 217.84961 268.54435 217.84961 238.36523 C 217.84961 207.82875 198.76959 190.99805 166.66016 190.99805 z " /></symbol>
  <symbol id="googlescholar" viewBox="0 0 512 512"><path d="M 48 32 C 21.5 32 0 53.5 0 80 L 0 432 C 0 458.5 21.5 480 48 480 L 400 480 C 426.5 480 448 458.5 448 432 L 448 80 C 448 53.5 426.5 32 400 32 L 48 32 z M 188.69531 96 L 366.93555 96 L 350.46484 108.85938 L 350.46484 131.55273 C 356.58074 132.33805 355.93359 136.01292 355.93359 140.41016 L 355.93359 247.63281 C 355.93359 252.59844 351.87154 256.66211 346.90625 256.66211 L 343.58203 256.66211 C 338.6164 256.66211 334.55273 252.59808 334.55273 247.63281 L 334.55273 140.41016 C 334.55273 136.00235 333.91278 132.32357 340.07422 131.54883 L 340.07422 117.2832 L 292.65039 156.17578 C 293.19834 157.19151 293.71814 157.84328 294.21289 158.69531 C 298.37973 166.07266 300.50195 175.2445 300.50195 186.45508 C 300.50195 195.04833 299.06991 202.77005 296.16602 209.58594 C 293.2752 216.4033 289.75942 221.97045 285.6582 226.25977 C 281.55701 230.56406 277.44275 234.49591 273.32812 238.03711 C 269.21486 241.58524 265.69906 245.28375 262.82031 249.125 C 259.91892 252.95314 258.47266 256.91247 258.47266 261.01367 C 258.47266 265.12181 260.3486 269.29452 264.08594 273.5 C 267.8098 277.7186 272.39123 281.80635 277.80859 285.84375 C 283.23797 289.85418 288.65493 294.30653 294.07227 299.15039 C 299.50131 303.98623 304.05933 310.21146 307.7832 317.77148 C 311.53367 325.35666 313.4082 333.7088 313.4082 342.88867 C 313.4082 354.99795 310.32064 365.93466 304.16211 375.66797 C 297.99007 385.36114 289.94334 393.09684 280.06055 398.76758 C 270.15151 404.47697 259.55333 408.77389 248.25195 411.67773 C 236.92398 414.55506 225.68694 416 214.46289 416 C 207.37866 416 200.23024 415.4525 193.04102 414.33398 C 185.82883 413.21398 178.60279 411.2357 171.32422 408.44922 C 164.03255 405.64267 157.57316 402.19843 151.97461 398.05859 C 146.36256 393.96392 141.84477 388.67686 138.38086 382.23828 C 134.91694 375.79976 133.19727 368.55971 133.19727 360.51953 C 133.19727 350.9809 135.85421 342.13421 141.17969 333.88477 C 146.50481 325.69549 153.56199 318.85925 162.33789 313.44336 C 177.65114 303.91787 201.67434 298.03206 234.36914 295.80664 C 226.89588 286.46381 223.14648 277.66689 223.14648 269.4375 C 223.14648 264.75479 224.36834 259.73766 226.79102 254.32031 C 222.8845 254.86718 218.86242 255.17383 214.75977 255.17383 C 197.19704 255.17383 182.36436 249.46431 170.32031 237.9668 C 158.27629 226.48824 152.26172 212.1206 152.26172 194.75 C 152.26172 192.93401 152.31391 191.33134 152.44336 189.56055 L 81.064453 189.56055 L 188.69531 96 z M 220.07422 134.33398 C 208.8753 134.33398 200.28236 138.36304 194.29297 146.4043 C 188.30507 154.42442 185.30859 164.13895 185.30859 175.55078 C 185.30859 185.27059 186.9492 195.16722 190.23047 205.25781 C 193.49857 215.34329 198.8517 224.34729 206.35156 232.2832 C 213.8248 240.23914 222.52348 244.20898 232.40625 244.20898 C 243.42216 244.20898 252.02911 240.51954 258.20117 233.13672 C 264.34622 225.76629 267.43164 216.46329 267.43164 205.25781 C 267.43164 195.71264 265.80524 185.72081 262.53711 175.27148 C 259.28103 164.80901 253.85206 155.36886 246.27344 146.96484 C 238.7211 138.53274 229.97011 134.33398 220.07422 134.33398 z M 238.5918 306.41406 C 230.55711 306.41406 222.65275 307.12634 214.89258 308.54492 C 207.13241 309.92488 199.47583 312.25478 191.92383 315.54297 C 184.34522 318.81255 178.22564 323.61796 173.56445 329.97266 C 168.87661 336.31933 166.54492 343.79435 166.54492 352.39453 C 166.54492 360.59035 168.60405 367.90081 172.71875 374.26758 C 176.8214 380.59526 182.2367 385.55152 188.96875 389.09961 C 195.70076 392.65432 202.7576 395.33574 210.12695 397.09961 C 217.50975 398.85145 225.02377 399.76367 232.67969 399.76367 C 247.82231 399.76367 260.85547 396.35252 271.79297 389.53516 C 282.70351 382.71926 288.17383 372.1931 288.17383 357.98633 C 288.17383 354.99821 287.75694 352.05432 286.93555 349.18359 C 286.07694 346.2797 285.2319 343.79439 284.39844 341.73047 C 283.56499 339.70522 281.97671 337.26317 279.63281 334.45117 C 277.302 331.63256 275.51712 329.54862 274.31836 328.16211 C 273.09446 326.73003 270.80621 324.68508 267.43164 321.98242 C 264.08738 319.26867 261.95132 317.57694 261 316.95117 L 260.99805 316.95117 C 260.06034 316.29355 257.62635 314.51567 253.70703 311.63086 C 249.78813 308.72002 247.64052 307.17679 247.26172 306.99414 C 245.20436 306.62337 242.31565 306.41406 238.5918 306.41406 z " /></symbol>
<symbol id="maps" viewBox="0 0 92.26 122.88"><path d="M47.49,116.85c6.31-4.01,11.98-8.87,16.92-14.29c10.73-11.75,17.97-26.11,20.87-40.2c2.88-13.91,1.52-27.54-4.85-38.06 c-1.81-3.02-4.08-5.78-6.78-8.26c-7.74-7.05-16.6-10.41-25.52-10.5c-9.37-0.07-18.87,3.45-27.27,10.14 c-3.58,2.86-6.53,6.15-8.82,9.78c-5.9,9.28-7.69,20.8-5.74,32.85c1.97,12.23,7.78,25.02,17.04,36.61 c6.44,8.08,14.54,15.58,24.18,21.91L47.49,116.85L47.49,116.85z M46.13,21.16c7.05,0,13.45,2.86,18.06,7.49 c4.63,4.63,7.49,11,7.49,18.06c0,7.05-2.86,13.45-7.49,18.06c-4.63,4.63-11,7.49-18.06,7.49c-7.05,0-13.45-2.86-18.06-7.49 c-4.63-4.63-7.49-11-7.49-18.06c0-7.05,2.86-13.45,7.49-18.06C32.7,24.02,39.07,21.16,46.13,21.16L46.13,21.16z M60.51,32.33 c-3.67-3.67-8.78-5.97-14.38-5.97c-5.63,0-10.71,2.27-14.38,5.97c-3.67,3.67-5.97,8.78-5.97,14.38c0,5.63,2.27,10.71,5.97,14.38 c3.67,3.67,8.78,5.97,14.38,5.97c5.63,0,10.71-2.27,14.38-5.97c3.67-3.67,5.97-8.78,5.97-14.38C66.47,41.08,64.21,36,60.51,32.33 L60.51,32.33z M68.52,106.27c-5.6,6.12-12.09,11.61-19.42,16.06c-0.88,0.66-2.13,0.75-3.13,0.11 c-10.8-6.87-19.85-15.13-26.99-24.09C9.15,86.02,2.94,72.34,0.83,59.16c-2.15-13.36-0.14-26.2,6.51-36.68 c2.63-4.13,5.97-7.89,10.07-11.14C26.78,3.88,37.51-0.07,48.17,0c10.28,0.09,20.42,3.9,29.22,11.93c3.09,2.81,5.67,5.99,7.78,9.48 c7.15,11.77,8.69,26.81,5.56,42.01c-3.11,15.04-10.8,30.33-22.18,42.8L68.52,106.27L68.52,106.27z"/></symbol>
</svg>
